<?xml version="1.0" encoding="UTF-8"?>
<svg id="Logo_9" xmlns="http://www.w3.org/2000/svg" version="1.1" viewBox="0 0 720 720">
  <!-- Generator: Adobe Illustrator 29.5.0, SVG Export Plug-In . SVG Version: 2.1.0 Build 137)  -->
  <defs>
    <style>
      .st0 {
        fill: #2717ff;
      }
    </style>
  </defs>
  <polygon class="st0" points="639 351 657 351 657 72 639 90 639 351"/>
  <polygon class="st0" points="639 648 639 369 657 369 657 630 639 648"/>
  <rect class="st0" x="639" y="351" width="18" height="18"/>
  <polygon points="369 351 639 351 639 360 639 360 639 369 369 369 360 360 369 351"/>
  <path class="st0" d="M90,334.09V72h-18v279s6.73,0,18,0v-16.91Z"/>
  <polygon class="st0" points="90 631.09 90 385.91 90 369 72 369 72 648 90 648 90 631.09"/>
  <rect class="st0" x="72" y="351" width="18" height="18"/>
  <path class="st0" d="M331.2,72h-7.62v18l18.42,18.99v223.01l-18.42,18.99v18h7.62l28.8-29.7V101.7l-28.8-29.7Z"/>
  <polygon class="st0" points="331.2 351 323.58 351 323.58 369 342 387.99 342 611.01 323.58 630 323.58 648 331.2 648 360 618.3 360 380.7 331.2 351"/>
  <g>
    <polygon points="323.58 72 90 72 90 88.91 90 90 323.58 90 323.58 72"/>
    <path d="M139.2,351h-49.2v18c12.07,0,29.34,0,49.2,0,64.99,0,157.48,0,184.38,0v-18h-184.38Z"/>
  </g>
  <g>
    <rect x="90" y="351" width="233.58" height="18"/>
    <polygon points="90 630 90 631.09 90 648 323.58 648 323.58 630 90 630"/>
  </g>
</svg>